<?xml version="1.0" standalone="no"?>
<!DOCTYPE svg PUBLIC "-//W3C//DTD SVG 20010904//EN"
 "http://www.w3.org/TR/2001/REC-SVG-20010904/DTD/svg10.dtd">
<svg version="1.0" xmlns="http://www.w3.org/2000/svg"
 width="1563.000000pt" height="1563.000000pt" viewBox="0 0 1563.000000 1563.000000"
 preserveAspectRatio="xMidYMid meet">

<g transform="translate(0.000000,1563.000000) scale(0.100000,-0.100000)"
fill="#000000" stroke="none">
<path d="M5200 11860 c0 -12 7 -20 18 -20 10 0 28 -7 40 -16 l22 -15 0 -1360
0 -1359 -30 0 c-49 0 -180 -30 -242 -55 -156 -64 -310 -209 -391 -370 -91
-182 -100 -425 -24 -615 41 -101 88 -171 172 -255 91 -90 162 -136 273 -176
45 -16 71 -29 62 -33 -8 -3 -46 -17 -84 -31 -228 -84 -413 -310 -462 -561 -80
-419 203 -828 619 -895 97 -15 322 -6 434 17 205 42 368 128 495 261 101 107
150 204 172 343 l12 75 162 95 c186 109 248 155 302 225 105 136 143 294 105
440 -54 204 -260 385 -521 457 -66 18 -107 21 -249 22 -146 1 -182 -2 -255
-22 -217 -58 -401 -192 -478 -349 -30 -61 -39 -63 -153 -39 -186 40 -355 180
-450 371 -58 118 -73 188 -73 335 0 150 15 216 81 350 38 79 61 110 132 181
93 93 182 145 296 174 105 27 95 55 95 -274 0 -288 0 -290 -22 -305 -12 -9
-31 -16 -41 -16 -12 0 -17 -6 -15 -17 3 -16 18 -18 148 -18 130 0 145 2 148
18 2 11 -3 17 -15 17 -10 0 -29 7 -41 16 -22 15 -22 17 -22 305 l0 289 41 0
c60 0 224 -36 297 -64 174 -68 283 -160 348 -292 37 -74 38 -81 42 -200 l4
-124 60 0 c72 0 75 6 60 109 -15 93 -70 211 -141 296 -131 159 -363 273 -623
306 l-88 12 0 513 0 514 635 0 c628 0 635 0 635 20 0 20 -7 20 -635 20 l-635
0 0 835 0 835 468 0 c858 0 1089 -30 1480 -191 28 -12 34 -12 42 1 11 17 14
199 4 224 -6 14 -113 16 -1110 16 -1097 0 -1104 0 -1104 -20z m1125 -3885
c121 -35 212 -85 293 -160 211 -197 216 -453 12 -655 -57 -57 -126 -100 -531
-335 -255 -148 -496 -291 -536 -318 -124 -82 -202 -184 -244 -317 l-17 -55
-49 3 c-131 8 -247 66 -358 177 -119 119 -183 241 -212 399 -17 95 -12 238 13
336 50 198 186 370 363 459 62 32 168 60 223 61 l26 0 -5 -75 -6 -75 57 0 56
0 0 78 c0 146 43 248 143 338 61 55 184 114 292 142 114 30 126 31 265 27 98
-3 145 -9 215 -30z m-175 -1297 c0 -51 -27 -153 -55 -208 -33 -66 -130 -167
-200 -209 -114 -69 -326 -131 -447 -131 -36 0 -39 2 -33 23 15 50 74 133 135
189 45 42 145 108 325 214 143 84 263 153 268 154 4 0 7 -15 7 -32z"/>
<path d="M7712 11863 c2 -11 18 -21 41 -26 l37 -9 0 -1678 0 -1679 -22 -15
c-12 -9 -31 -16 -41 -16 -12 0 -17 -6 -15 -17 3 -15 17 -18 101 -21 90 -3 97
-1 97 16 0 14 -9 21 -30 25 -20 4 -31 14 -35 29 -3 13 -4 757 -3 1654 l3 1632
966 -1677 966 -1676 42 -3 41 -3 0 1698 c0 1857 -4 1743 56 1743 17 0 24 5 24
20 0 19 -7 20 -101 20 -90 0 -100 -2 -97 -17 2 -10 13 -19 25 -21 11 -2 28
-11 37 -21 15 -16 16 -159 14 -1612 l-3 -1595 -939 1633 -939 1633 -114 0
c-103 0 -114 -2 -111 -17z"/>
<path d="M7330 8498 c-29 -97 -602 -1997 -828 -2746 -99 -326 -187 -603 -196
-617 -10 -14 -30 -27 -51 -31 -25 -4 -35 -11 -35 -25 0 -17 9 -19 100 -19 91
0 100 2 100 19 0 12 -9 21 -25 25 -14 4 -28 13 -32 22 -3 8 116 413 263 899
250 823 270 884 289 879 11 -4 68 -25 127 -49 336 -134 656 -399 854 -707 57
-89 132 -240 177 -358 47 -122 199 -636 195 -658 -2 -9 -14 -22 -28 -29 -14
-7 -25 -18 -25 -25 0 -10 35 -13 150 -13 119 0 150 3 150 13 0 8 -17 20 -38
27 -21 7 -44 21 -51 30 -7 9 -237 762 -511 1673 -274 912 -506 1680 -515 1707
-25 76 -44 71 -70 -17z m325 -1312 c179 -593 324 -1081 321 -1083 -2 -2 -16
18 -31 44 -94 160 -283 371 -445 493 -162 124 -391 245 -547 291 -24 7 -43 18
-43 25 0 11 114 391 397 1329 l6 20 9 -20 c4 -11 154 -506 333 -1099z"/>
<path d="M8842 8523 c2 -11 18 -21 41 -26 l37 -9 0 -1678 0 -1679 -22 -15
c-12 -9 -31 -16 -41 -16 -12 0 -17 -6 -15 -17 3 -15 17 -18 101 -21 90 -3 97
-1 97 16 0 14 -9 21 -30 25 -20 4 -31 14 -35 29 -3 13 -4 757 -3 1654 l3 1632
966 -1677 966 -1676 42 -3 41 -3 0 1698 c0 1857 -4 1743 56 1743 17 0 24 5 24
20 0 19 -7 20 -101 20 -90 0 -100 -2 -97 -17 2 -10 13 -19 25 -21 11 -2 28
-11 37 -21 15 -16 16 -159 14 -1612 l-3 -1595 -939 1633 -939 1633 -114 0
c-103 0 -114 -2 -111 -17z"/>
</g>
</svg>
